<?xml version="1.0" encoding="utf-8"?>
<!-- Generator: Adobe Illustrator 16.0.0, SVG Export Plug-In . SVG Version: 6.00 Build 0)  -->
<!DOCTYPE svg PUBLIC "-//W3C//DTD SVG 1.1//EN" "http://www.w3.org/Graphics/SVG/1.1/DTD/svg11.dtd">
<svg version="1.1" id="Layer_1" xmlns="http://www.w3.org/2000/svg" xmlns:xlink="http://www.w3.org/1999/xlink" x="0px" y="0px"
	 width="1143.41px" height="184.99px" viewBox="0 0 1143.41 184.99" enable-background="new 0 0 1143.41 184.99"
	 xml:space="preserve">
<g>
	<polygon fill="#010101" stroke="#FFFFFF" stroke-width="2" stroke-miterlimit="10" points="308.667,0 36.505,96.932 134.125,0 	"/>
	<polygon fill="#010101" stroke="#FFFFFF" stroke-width="2" stroke-miterlimit="10" points="171.884,0 239.215,184.99 
		1143.411,72.455 1143.411,0 	"/>
	<polygon fill="#010101" stroke="#FFFFFF" stroke-width="2" stroke-miterlimit="10" points="36.505,96.932 134.125,0 0,0 	"/>
</g>
<polygon fill="#010101" stroke="#020202" stroke-width="5" stroke-miterlimit="10" points="-104.125,-412.571 -57.832,-286.456 
	125.072,-252.37 169.072,-268.37 196.072,-233.37 206.063,-252.334 228.902,-252.78 249.335,-260.198 273.644,-252.2 
	290.646,-261.971 309.761,-265.889 326.072,-246.87 361.996,-262.495 401.407,-268.493 434.576,-292.145 451.669,-297.985 
	457.124,-305.067 470.627,-309.417 530.651,-344.758 560.021,-360.387 540.027,-412.571 "/>
</svg>
