<?xml version="1.0" encoding="utf-8"?>
<!-- Generator: Adobe Illustrator 16.0.0, SVG Export Plug-In . SVG Version: 6.00 Build 0)  -->
<!DOCTYPE svg PUBLIC "-//W3C//DTD SVG 1.1//EN" "http://www.w3.org/Graphics/SVG/1.1/DTD/svg11.dtd">
<svg version="1.1" id="Layer_1" xmlns="http://www.w3.org/2000/svg" xmlns:xlink="http://www.w3.org/1999/xlink" x="0px" y="0px"
	 width="393.41px" height="406.36px" viewBox="0 0 393.41 406.36" enable-background="new 0 0 393.41 406.36" xml:space="preserve">
<rect x="155.273" y="20.676" transform="matrix(0.9397 -0.342 0.342 0.9397 -52.6119 96.3433)" fill="#010101" stroke="#FFFFFF" stroke-width="2" stroke-miterlimit="10" width="183.236" height="353.372"/>
<polygon fill="#010101" stroke="#FFFFFF" stroke-width="2" stroke-miterlimit="10" points="0,148.107 272.554,-0.004 
	393.414,332.057 348.028,406.36 0,406.36 "/>
<polygon fill="#010101" stroke="#FFFFFF" stroke-width="2" stroke-miterlimit="10" points="0,113.679 100.368,62.666 
	272.554,-0.004 0,148.107 "/>
<polygon fill="#010101" stroke="#FFFFFF" stroke-width="2" stroke-miterlimit="10" points="0,52.668 0,60.028 126.554,6.606 "/>
<polygon fill="#010101" stroke="#FFFFFF" stroke-width="2" stroke-miterlimit="10" points="126.554,6.606 272.554,406.36 0,406.36 
	0,60.028 "/>
<polygon fill="#010101" stroke="#020202" stroke-width="5" stroke-miterlimit="10" points="430.252,97.101 476.545,223.216 
	659.449,257.302 703.449,241.302 730.449,276.302 740.44,257.337 763.279,256.892 783.712,249.474 808.021,257.472 825.022,247.7 
	844.138,243.782 860.449,262.802 896.373,247.177 935.784,241.179 968.953,217.526 986.046,211.687 991.501,204.605 
	1005.004,200.255 1065.028,164.914 1094.398,149.285 1074.404,97.101 "/>
</svg>
