<?xml version="1.0" encoding="utf-8"?>
<!-- Generator: Adobe Illustrator 16.0.0, SVG Export Plug-In . SVG Version: 6.00 Build 0)  -->
<!DOCTYPE svg PUBLIC "-//W3C//DTD SVG 1.1//EN" "http://www.w3.org/Graphics/SVG/1.1/DTD/svg11.dtd">
<svg version="1.1" id="Layer_1" xmlns="http://www.w3.org/2000/svg" xmlns:xlink="http://www.w3.org/1999/xlink" x="0px" y="0px"
	 width="696.515px" height="347px" viewBox="-3.485 -2.125 696.515 347" enable-background="new -3.485 -2.125 696.515 347"
	 xml:space="preserve">
<polygon stroke="#010101" stroke-width="3" stroke-miterlimit="10" points="693.03,15.125 243.959,71.5 217.709,0 143.21,27.501 
	116.644,41.638 62.349,73.606 50.135,77.541 45.2,83.947 29.74,89.229 -0.37,110.676 15.232,128.678 31.388,154.338 41.653,157.242 
	46.725,163.633 56.011,164.568 63.132,174.82 63.112,192.859 86.006,190.375 93.718,193.27 114.979,238.725 143.663,253.103 
	203.863,291.403 326.628,343.333 383.962,324 370.293,286.666 510.626,236 581.293,251.333 634.209,231 693.03,237.5 "/>
<rect x="-3.485" y="-2.125" fill="none" width="696.515" height="347"/>
</svg>
