<?xml version="1.0" encoding="utf-8"?>
<!-- Generator: Adobe Illustrator 16.0.0, SVG Export Plug-In . SVG Version: 6.00 Build 0)  -->
<!DOCTYPE svg PUBLIC "-//W3C//DTD SVG 1.1//EN" "http://www.w3.org/Graphics/SVG/1.1/DTD/svg11.dtd">
<svg version="1.1" id="Layer_1" xmlns="http://www.w3.org/2000/svg" xmlns:xlink="http://www.w3.org/1999/xlink" x="0px" y="0px"
	 width="943.75px" height="668.666px" viewBox="-3.955 -69.896 943.75 668.666"
	 enable-background="new -3.955 -69.896 943.75 668.666" xml:space="preserve">
<rect x="736.295" y="-152.453" width="46" height="48"/>
<polygon stroke="#010101" stroke-width="5" stroke-miterlimit="10" points="0,596.539 42.333,482.91 118.004,266.118 
	151.906,259.279 205.427,217.195 227.888,217.195 248.237,206.781 253.711,177.475 293.368,103.984 320.166,103.984 369.264,67.942 
	406.804,53.432 410.62,41.939 412.254,18.798 423.801,-4.105 442.275,-10.734 466.972,-44.285 474.498,-51.098 491.083,-66.135 
	506.691,-48.125 522.847,-22.465 533.112,-19.56 538.184,-13.17 547.47,-12.234 554.591,-1.982 554.571,16.057 577.465,13.573 
	585.177,16.467 606.438,61.922 635.122,76.3 695.322,114.601 818.087,166.531 886.084,352.198 851.085,363.531 936.085,596.537 "/>
<rect x="-3.955" y="-69.896" fill="none" width="943.75" height="668.666"/>
</svg>
